<svg width="16" height="16" viewBox="0 0 16 16" fill="none" xmlns="http://www.w3.org/2000/svg">
<path d="M4.87415 6.65784H11.0198V11.7439C11.0198 12.5437 10.3715 13.1921 9.57172 13.1921H4.87415V6.65784Z" fill="#E18E39"/>
<path fill-rule="evenodd" clip-rule="evenodd" d="M4.60925 13.1921H5.00656V12.3797H4.88293C4.88293 12.685 4.78097 12.9665 4.60925 13.1921Z" fill="#E18E39"/>
<path d="M7.62915 2.66666H11.7439C12.4657 2.66666 13.0508 3.25176 13.0508 3.97351V6.16335H7.62915V2.66666Z" fill="#E18E39"/>
<path fill-rule="evenodd" clip-rule="evenodd" d="M7.6365 3.42605H7.86367V2.66666H7.34656C7.51261 2.87869 7.61797 3.14054 7.6365 3.42605Z" fill="#E18E39"/>
<path d="M4.87415 3.47903C4.87415 3.03037 5.23785 2.66666 5.68651 2.66666H6.21631C6.66496 2.66666 7.02867 3.03037 7.02867 3.47903V6.65783H4.87415V3.47903Z" fill="#E18E39"/>
<path d="M2.7373 10.3841H4.45033V12.4415C4.45033 12.856 4.1143 13.1921 3.69978 13.1921H3.48786C3.07334 13.1921 2.7373 12.856 2.7373 12.4415V10.3841Z" fill="#E18E39"/>
<mask id="path-7-inside-1_3_5" fill="white">
<path d="M0 4.09713C0 1.83435 1.83435 0 4.09713 0H11.9029C14.1657 0 16 1.83435 16 4.09713V11.9029C16 14.1657 14.1657 16 11.9029 16H4.09713C1.83435 16 0 14.1657 0 11.9029V4.09713Z"/>
</mask>
<path d="M-0.441501 4.00883C-0.441501 1.50221 1.59051 -0.529801 4.09713 -0.529801H11.9029C14.4095 -0.529801 16.4415 1.50221 16.4415 4.00883L15.5585 4.09713C15.5585 2.12695 13.9218 0.529801 11.9029 0.529801H4.09713C2.07818 0.529801 0.441501 2.12695 0.441501 4.09713L-0.441501 4.00883ZM16.4415 11.9912C16.4415 14.4978 14.4095 16.5298 11.9029 16.5298H4.09713C1.59051 16.5298 -0.441501 14.4978 -0.441501 11.9912L0.441501 11.9029C0.441501 13.8731 2.07818 15.4702 4.09713 15.4702H11.9029C13.9218 15.4702 15.5585 13.8731 15.5585 11.9029L16.4415 11.9912ZM4.09713 16.5298C1.59051 16.5298 -0.441501 14.4978 -0.441501 11.9912V4.00883C-0.441501 1.50221 1.59051 -0.529801 4.09713 -0.529801L4.09713 0.529801C2.07818 0.529801 0.441501 2.12695 0.441501 4.09713V11.9029C0.441501 13.8731 2.07818 15.4702 4.09713 15.4702L4.09713 16.5298ZM11.9029 -0.529801C14.4095 -0.529801 16.4415 1.50221 16.4415 4.00883V11.9912C16.4415 14.4978 14.4095 16.5298 11.9029 16.5298L11.9029 15.4702C13.9218 15.4702 15.5585 13.8731 15.5585 11.9029V4.09713C15.5585 2.12695 13.9218 0.529801 11.9029 0.529801L11.9029 -0.529801Z" fill="#E18E39" mask="url(#path-7-inside-1_3_5)"/>
</svg>
